<svg version="1.0" xmlns="http://www.w3.org/2000/svg"
 viewBox="0 0 752.000000 752.000000"
 preserveAspectRatio="xMidYMid meet"
 transform="scale(-1,1)"
 >

    <g transform="translate(0.000000,752.000000) scale(0.100000,-0.100000)"
    fill="#FFFFFF" stroke="none">
    <path d="M2114 5045 c-69 -35 -64 59 -64 -1285 0 -1124 1 -1214 17 -1241 22
    -38 76 -63 116 -55 20 4 295 199 732 520 l700 512 5 -477 c5 -465 6 -478 26
    -506 11 -15 39 -34 61 -42 34 -12 43 -12 69 1 17 8 398 284 847 612 537 393
    823 608 832 627 20 37 19 68 -4 104 -11 18 -330 258 -811 610 -436 319 -808
    590 -827 603 -65 45 -124 37 -167 -21 -20 -28 -21 -41 -26 -506 l-5 -477 -265
    194 c-1060 776 -1140 833 -1172 838 -19 3 -46 -2 -64 -11z"/>
    </g>
</svg>
